<?xml version="1.0" encoding="utf-8"?>
<!-- Generator: Adobe Illustrator 22.1.0, SVG Export Plug-In . SVG Version: 6.00 Build 0)  -->
<svg version="1.1" id="Слой_1" xmlns="http://www.w3.org/2000/svg" xmlns:xlink="http://www.w3.org/1999/xlink" x="0px" y="0px"
	 viewBox="0 0 54 54" style="enable-background:new 0 0 54 54;" xml:space="preserve">
<style type="text/css">
	.st0{fill:#1DBC0C;}
	.st1{fill:#FFFFFF;}
</style>
<g id="XMLID_481_">
	<path class="st0" d="M27,3C17.1,3,9,11.1,9,21c0,15,16.4,30,18,30c1.2,0,18-15,18-30C45,11.1,36.9,3,27,3z"/>
	<path class="st1" d="M27,52C24.4,52,8,36.3,8,21C8,10.5,16.5,2,27,2s19,8.5,19,19C46,36.2,29.1,52,27,52z M26.8,50L26.8,50L26.8,50
		z M27.2,50L27.2,50L27.2,50z M27,4c-9.4,0-17,7.6-17,17c0,13.5,14.2,27.6,17,28.9c2.4-1.4,17-15.2,17-28.9C44,11.6,36.4,4,27,4z"/>
</g>
<path class="st1" d="M19.3,28.5C19.3,28.5,19.4,28.6,19.3,28.5l3.5,0.5c0.1,0,0.2-0.1,0.2-0.2c0,0,0,0,0,0l-0.3-2.3l2.3,0.3
	c0.1,0,0.2-0.1,0.2-0.2c0,0,0,0,0,0l-0.3-2.3l2.3,0.3c0.1,0,0.1,0,0.1-0.1l0.9-0.9c1.8,0.4,3.7-0.1,5-1.4c2.1-2.1,2.1-5.5,0-7.6
	c-2.1-2.1-5.5-2.1-7.6,0c0,0,0,0,0,0c-1.3,1.3-1.8,3.2-1.4,5l-5.3,5.3c0,0-0.1,0.1-0.1,0.1l0.4,3.4C19.2,28.5,19.3,28.5,19.3,28.5
	 M28.3,19.5c-0.7-0.7-0.7-1.8,0-2.5c0.7-0.7,1.8-0.7,2.5,0l0,0c0.7,0.7,0.7,1.8,0,2.5l0,0C30.1,20.2,29,20.2,28.3,19.5"/>
</svg>
