<?xml version="1.0" encoding="utf-8"?>
<!-- Generator: Adobe Illustrator 22.1.0, SVG Export Plug-In . SVG Version: 6.00 Build 0)  -->
<svg version="1.1" id="Слой_1" xmlns="http://www.w3.org/2000/svg" xmlns:xlink="http://www.w3.org/1999/xlink" x="0px" y="0px"
	 viewBox="0 0 54 54" style="enable-background:new 0 0 54 54;" xml:space="preserve">
<style type="text/css">
	.st0{fill:#B3B3B3;}
	.st1{fill:#FFFFFF;}
</style>
<g id="XMLID_481_">
	<path class="st0" d="M27,3C17.1,3,9,11.1,9,21c0,15,16.4,30,18,30c1.2,0,18-15,18-30C45,11.1,36.9,3,27,3z"/>
	<path class="st1" d="M27,52C24.4,52,8,36.3,8,21C8,10.5,16.5,2,27,2s19,8.5,19,19C46,36.2,29.1,52,27,52z M26.8,50L26.8,50L26.8,50
		z M27.2,50L27.2,50L27.2,50z M27,4c-9.4,0-17,7.6-17,17c0,13.5,14.2,27.6,17,28.9c2.4-1.4,17-15.2,17-28.9C44,11.6,36.4,4,27,4z"/>
</g>
<path class="st1" d="M32.8,26.5c-0.4,0.6-1.2,1-2,1c-0.8,0-1.6-0.4-2-1c-0.4,0.6-1.2,1-2,1c-0.8,0-1.6-0.4-2-1c-0.4,0.6-1.2,1-2,1
	c-0.8,0-1.6-0.4-2-1c-0.4,0.6-1.2,1-2,1V29c0.8,0,1.6-0.4,2-1c0.4,0.6,1.2,1,2,1c0.8,0,1.6-0.4,2-1c0.4,0.6,1.2,1,2,1
	c0.8,0,1.6-0.4,2-1c0.4,0.6,1.2,1,2,1c0.8,0,1.6-0.4,2-1c0.4,0.6,1.2,1,2,1v-1.4C34,27.6,33.2,27.1,32.8,26.5z M27.1,26.9
	c0.5-0.1,0.9-0.3,1.2-0.8l0.5-0.7l0.5,0.7c0.3,0.5,0.9,0.8,1.5,0.8c0.6,0,1.2-0.3,1.5-0.8c0,0,2.5-3.5,2.5-5.4
	c0-2.1-6.3-3.6-7.7-3.9L27.1,26.9L27.1,26.9z M21.8,15.8c0-1.1,0.4-1.6,1.7-1.6h2.6v2.2c0.1,0,0.1,0,0.2,0c0.1,0,0.1,0,0.1,0
	c0,0,0,0,0,0c0,0,0.1,0,0.1,0c0,0,0,0,0,0c0,0,0.1,0,0.1,0c0,0,0,0,0,0c0,0,0,0,0,0l0.1,0l0.1,0c0,0,0,0,0.1,0c0,0,0,0,0,0
	c0,0,0,0,0.1,0c0,0,0,0,0,0c0,0,0.1,0,0.1,0c0.1,0,0.1,0,0.2,0v-2.2h2.6c1.3,0,1.7,0.6,1.7,1.6v3.9c0.4,0.2,0.8,0.3,1.2,0.5v-4.4
	c0-1.8-1-2.8-2.9-2.8h-6.7c-1.9,0-2.9,1-2.9,2.8V20c0.4-0.2,0.8-0.4,1.2-0.5V15.8z M22.8,27c0.6,0,1.2-0.3,1.5-0.8l0.5-0.7l0.5,0.7
	c0.3,0.4,0.7,0.7,1.2,0.8v-10c-1.4,0.3-7.7,1.8-7.7,3.9c0,1.9,2.5,5.4,2.5,5.4C21.6,26.7,22.2,27,22.8,27z"/>
</svg>
