<?xml version="1.0" encoding="utf-8"?>
<!-- Generator: Adobe Illustrator 22.1.0, SVG Export Plug-In . SVG Version: 6.00 Build 0)  -->
<svg version="1.1" id="Слой_1" xmlns="http://www.w3.org/2000/svg" xmlns:xlink="http://www.w3.org/1999/xlink" x="0px" y="0px"
	 viewBox="0 0 406 122" style="enable-background:new 0 0 406 122;" xml:space="preserve">
<style type="text/css">
	.st0{fill:#1A1A1A;}
	.st1{fill-rule:evenodd;clip-rule:evenodd;fill:#307579;}
	.st2{fill-rule:evenodd;clip-rule:evenodd;fill:#3FA7B1;}
	.st3{opacity:0.2;fill-rule:evenodd;clip-rule:evenodd;fill:#FFFFFF;}
	.st4{fill:#307579;}
	.st5{fill:#FFFFFF;}
</style>
<g>
	<g>
		<path d="M74.3,45.8"/>
		<path class="st0" d="M116.4,77.9V36h14.7c5.1,0,8.9,1,11.6,2.9c2.6,1.9,3.9,4.8,3.9,8.6c0,2.1-0.5,3.9-1.6,5.4
			c-1.1,1.6-2.5,2.7-4.4,3.4c2.1,0.5,3.8,1.6,5.1,3.3c1.2,1.6,1.9,3.6,1.9,6c0,4-1.3,7.1-3.9,9.2c-2.6,2.1-6.2,3.1-11,3.2H116.4z
			 M125.1,53.6h6.4c4.4-0.1,6.5-1.8,6.5-5.2c0-1.9-0.6-3.3-1.7-4.1c-1.1-0.8-2.8-1.3-5.2-1.3h-6V53.6z M125.1,59.7V71h7.4
			c2,0,3.6-0.5,4.8-1.5c1.1-1,1.7-2.3,1.7-4c0-3.8-2-5.8-6-5.8H125.1z"/>
		<path class="st0" d="M188.5,57.9c0,4.1-0.7,7.7-2.2,10.9c-1.5,3.1-3.5,5.5-6.3,7.2s-5.8,2.5-9.3,2.5c-3.5,0-6.6-0.8-9.3-2.5
			c-2.7-1.7-4.8-4.1-6.3-7.2c-1.5-3.1-2.3-6.7-2.3-10.7v-2.1c0-4.1,0.7-7.8,2.2-10.9c1.5-3.1,3.6-5.5,6.3-7.2
			c2.7-1.7,5.8-2.5,9.3-2.5c3.5,0,6.6,0.8,9.3,2.5c2.7,1.7,4.8,4.1,6.3,7.2c1.5,3.1,2.2,6.8,2.2,10.9V57.9z M179.7,56
			c0-4.4-0.8-7.7-2.4-10s-3.8-3.4-6.7-3.4c-2.9,0-5.1,1.1-6.7,3.4c-1.6,2.3-2.4,5.6-2.4,9.9v2c0,4.3,0.8,7.6,2.4,10
			c1.6,2.4,3.8,3.5,6.8,3.5c2.9,0,5.1-1.1,6.7-3.4c1.6-2.3,2.3-5.6,2.4-9.9V56z"/>
		<path class="st0" d="M217.8,69.3h-15.1l-2.9,8.6h-9.2L206.2,36h8l15.7,41.9h-9.2L217.8,69.3z M205,62.3h10.5l-5.3-15.7L205,62.3z"
			/>
		<path class="st0" d="M261.9,43h-12.8v34.9h-8.6V43h-12.7v-7h34.1V43z"/>
		<path class="st0" d="M277.1,70.3l0.9,4.4l1.1-4.2l6.2-21h2.2l6.1,21l1.1,4.3l0.9-4.5l5.1-20.8h2.5L295.8,78h-2.3L287,55.7
			l-0.7-2.8l-0.7,2.8L279,78h-2.3l-7.3-28.4h2.5L277.1,70.3z"/>
		<path class="st0" d="M322.2,70h-12.9l-2.9,8h-2.5l10.8-28.4h2.3L327.7,78h-2.5L322.2,70z M310.1,68h11.4l-5.7-15.5L310.1,68z"/>
		<path class="st0" d="M348.6,51.6h-9.7V78h-2.4V51.6h-9.7v-2h21.9V51.6z"/>
		<path class="st0" d="M372.8,69.1c-0.3,3-1.4,5.3-3.2,6.9s-4.2,2.4-7.3,2.4c-2.1,0-4-0.5-5.6-1.6c-1.6-1.1-2.9-2.5-3.8-4.5
			c-0.9-1.9-1.3-4.1-1.3-6.6V62c0-2.5,0.4-4.8,1.3-6.7c0.9-2,2.2-3.5,3.8-4.5c1.7-1.1,3.6-1.6,5.7-1.6c3,0,5.5,0.8,7.2,2.5
			c1.8,1.6,2.8,3.9,3.1,6.8h-2.4c-0.6-4.8-3.2-7.2-7.9-7.2c-2.6,0-4.6,1-6.2,2.9c-1.5,1.9-2.3,4.6-2.3,8v3.5c0,3.3,0.7,5.9,2.2,7.9
			c1.5,2,3.5,2.9,6,2.9c2.5,0,4.4-0.6,5.7-1.8c1.3-1.2,2.1-3,2.4-5.4H372.8z"/>
		<path class="st0" d="M399.7,78h-2.4V64.4h-16.3V78h-2.4V49.6h2.4v12.8h16.3V49.6h2.4V78z"/>
		<g>
			<g>
				<path class="st1" d="M92.8,46.7C92.8,25,74.4,7.3,51.6,7.3C28.8,7.3,10.3,25,10.3,46.7c0,7.9,2.5,15.3,6.7,21.5h0
					c0,0,18.6,28.9,28.6,42.3c4.8,6.5,6.8,6.3,11.8,0.3c9.5-11.2,24.6-36,28-41.6C90.1,62.9,92.8,55.1,92.8,46.7z"/>
			</g>
		</g>
		<g>
			<g>
				<path class="st2" d="M88.8,46c0-21.8-18.5-39.4-41.3-39.4C24.7,6.6,6.3,24.2,6.3,46c0,7.9,2.5,15.3,6.7,21.5h0
					c0,0,18.6,28.9,28.6,42.3c4.8,6.5,6.8,6.3,11.8,0.3c9.5-11.2,24.6-36,28-41.6C86,62.2,88.8,54.4,88.8,46z"/>
			</g>
		</g>
		<path class="st3" d="M75.3,16.9l-57,57C10.9,66.8,6.3,56.9,6.3,46c0-21.8,18.5-39.4,41.2-39.4C58.2,6.6,68,10.5,75.3,16.9z"/>
		<g>
			<g>
				<g>
					<path class="st4" d="M77.2,45.3l-5.9,0.6v-0.6c0-0.2-0.2-0.3-0.3-0.3H69c-0.4-3.7-1.9-7.1-4.1-9.9l1.3-1.3
						c0.1-0.1,0.1-0.4,0-0.5l-0.4-0.4l4.6-3.8c0.7-0.7,0.7-1.9,0-2.6c-0.7-0.7-1.9-0.7-2.6,0l-3.8,4.6l-0.4-0.4
						c-0.1-0.1-0.4-0.1-0.5,0L61.8,32c-2.8-2.2-6.2-3.7-9.9-4.1V26c0-0.2-0.2-0.3-0.3-0.3H51l0.6-5.9c0-1-0.8-1.9-1.9-1.9
						s-1.9,0.8-1.9,1.9l0.6,5.9h-0.6c-0.2,0-0.3,0.2-0.3,0.3v1.9c-3.7,0.4-7.1,1.9-9.9,4.1l-1.3-1.3c-0.1-0.1-0.4-0.1-0.5,0
						l-0.4,0.4l-3.8-4.6c-0.7-0.7-1.9-0.7-2.6,0c-0.7,0.7-0.7,1.9,0,2.6l4.6,3.8l-0.4,0.4c-0.1,0.1-0.1,0.4,0,0.5l1.3,1.3
						c-2.2,2.8-3.7,6.2-4.1,9.9h-1.9c-0.2,0-0.3,0.2-0.3,0.3v0.6l-5.9-0.6c-1,0-1.9,0.8-1.9,1.9c0,1,0.8,1.9,1.9,1.9l5.9-0.6V49
						c0,0.2,0.2,0.3,0.3,0.3h1.9c0.4,3.7,1.9,7.1,4.1,9.9l-1.3,1.3c-0.1,0.1-0.1,0.4,0,0.5l0.4,0.4L29,65.3c-0.7,0.7-0.7,1.9,0,2.6
						c0.7,0.7,1.9,0.7,2.6,0l3.8-4.6l0.4,0.4c0.1,0.1,0.2,0.1,0.2,0.1c0.1,0,0.2,0,0.2-0.1l1.3-1.3c2.8,2.2,6.2,3.7,9.9,4.1v1.9
						c0,0.2,0.2,0.3,0.3,0.3h0.6l-0.6,5.9c0,1,0.8,1.9,1.9,1.9c1,0,1.9-0.8,1.9-1.9L51,68.7h0.6c0.2,0,0.3-0.2,0.3-0.3v-1.9
						c3.7-0.4,7.1-1.9,9.9-4.1l1.3,1.3c0.1,0.1,0.2,0.1,0.2,0.1s0.2,0,0.2-0.1l0.4-0.4l3.8,4.6c0.7,0.7,1.9,0.7,2.6,0
						c0.7-0.7,0.7-1.9,0-2.6l-4.6-3.8l0.4-0.4c0.1-0.1,0.1-0.4,0-0.5l-1.3-1.3c2.2-2.8,3.7-6.2,4.1-9.9h1.9c0.2,0,0.3-0.2,0.3-0.3
						v-0.6l5.9,0.6c1,0,1.9-0.8,1.9-1.9S78.2,45.3,77.2,45.3z M51.6,32.2c0.2,0,0.3-0.2,0.3-0.3v-1.1c2.9,0.4,5.6,1.5,7.9,3.3
						l-0.8,0.8c-0.1,0.1-0.1,0.4,0,0.5l0.5,0.5l-7.1,6.4c-0.4-0.2-0.7-0.3-1.1-0.5l-0.5-9.6H51.6z M47.6,30.7v1.1
						c0,0.2,0.2,0.3,0.3,0.3h0.7l-0.5,9.6c-0.4,0.1-0.8,0.3-1.1,0.5l-7.1-6.4l0.5-0.5c0.1-0.1,0.1-0.2,0.1-0.2s0-0.2-0.1-0.2
						L39.7,34C41.9,32.2,44.6,31.1,47.6,30.7z M36.5,37.1l0.8,0.8c0.1,0.1,0.2,0.1,0.2,0.1c0.1,0,0.2,0,0.2-0.1l0.5-0.5l6.4,7.1
						c-0.2,0.4-0.3,0.7-0.5,1.1l-9.6,0.5v-0.8c0-0.2-0.2-0.3-0.3-0.3h-1.1C33.7,42,34.8,39.3,36.5,37.1z M37.8,56.5
						c-0.1-0.1-0.4-0.1-0.5,0l-0.8,0.8c-1.7-2.3-2.9-5-3.3-7.9h1.1c0.2,0,0.3-0.2,0.3-0.3v-0.8l9.6,0.5c0.1,0.4,0.3,0.8,0.5,1.1
						L38.4,57L37.8,56.5z M47.9,62.2c-0.2,0-0.3,0.2-0.3,0.3v1.1c-2.9-0.4-5.6-1.5-7.9-3.3l0.8-0.8c0.1-0.1,0.1-0.2,0.1-0.2
						s0-0.2-0.1-0.2l-0.5-0.5l7.1-6.4c0.4,0.2,0.7,0.3,1.1,0.5l0.5,9.6L47.9,62.2L47.9,62.2z M47,47.2c0-1.5,1.2-2.7,2.7-2.7
						c1.5,0,2.7,1.2,2.7,2.7c0,1.5-1.2,2.7-2.7,2.7C48.3,49.9,47,48.7,47,47.2z M52,63.7v-1.1c0-0.2-0.2-0.3-0.3-0.3h-0.8l0.5-9.6
						c0.4-0.1,0.8-0.3,1.1-0.5l7.1,6.4l-0.5,0.5c-0.1,0.1-0.1,0.4,0,0.5l0.8,0.8C57.6,62.1,54.9,63.3,52,63.7z M63,57.3l-0.8-0.8
						c-0.1-0.1-0.4-0.1-0.5,0L61.1,57l-6.4-7.1c0.2-0.4,0.3-0.7,0.5-1.1l9.6-0.5V49c0,0.2,0.2,0.3,0.3,0.3h1.1
						C65.8,52.3,64.7,55,63,57.3z M65.1,45c-0.2,0-0.3,0.2-0.3,0.3v0.7l-9.6-0.5c-0.1-0.4-0.3-0.8-0.5-1.1l6.4-7.1l0.5,0.5
						c0.1,0.1,0.2,0.1,0.2,0.1s0.2,0,0.2-0.1l0.8-0.8c1.7,2.3,2.9,5,3.3,7.9L65.1,45L65.1,45z"/>
					<circle class="st4" cx="49.8" cy="47.2" r="1.7"/>
				</g>
			</g>
			<g>
				<g>
					<path class="st5" d="M76.1,45.3l-5.9,0.6v-0.6c0-0.2-0.2-0.3-0.3-0.3h-1.9c-0.4-3.7-1.9-7.1-4.1-9.9l1.3-1.3
						c0.1-0.1,0.1-0.4,0-0.5l-0.4-0.4l4.6-3.8c0.7-0.7,0.7-1.9,0-2.6c-0.7-0.7-1.9-0.7-2.6,0L63,31.1l-0.4-0.4
						c-0.1-0.1-0.4-0.1-0.5,0L60.7,32c-2.8-2.2-6.2-3.7-9.9-4.1V26c0-0.2-0.2-0.3-0.3-0.3h-0.6l0.6-5.9c0-1-0.8-1.9-1.9-1.9
						s-1.9,0.8-1.9,1.9l0.6,5.9h-0.6c-0.2,0-0.3,0.2-0.3,0.3v1.9c-3.7,0.4-7.1,1.9-9.9,4.1l-1.3-1.3c-0.1-0.1-0.4-0.1-0.5,0
						l-0.4,0.4l-3.8-4.6c-0.7-0.7-1.9-0.7-2.6,0c-0.7,0.7-0.7,1.9,0,2.6l4.6,3.8l-0.4,0.4c-0.1,0.1-0.1,0.4,0,0.5l1.3,1.3
						c-2.2,2.8-3.7,6.2-4.1,9.9h-1.9c-0.2,0-0.3,0.2-0.3,0.3v0.6l-5.9-0.6c-1,0-1.9,0.8-1.9,1.9c0,1,0.8,1.9,1.9,1.9l5.9-0.6V49
						c0,0.2,0.2,0.3,0.3,0.3h1.9c0.4,3.7,1.9,7.1,4.1,9.9l-1.3,1.3c-0.1,0.1-0.1,0.4,0,0.5l0.4,0.4l-4.6,3.8c-0.7,0.7-0.7,1.9,0,2.6
						c0.7,0.7,1.9,0.7,2.6,0l3.8-4.6l0.4,0.4c0.1,0.1,0.2,0.1,0.2,0.1c0.1,0,0.2,0,0.2-0.1l1.3-1.3c2.8,2.2,6.2,3.7,9.9,4.1v1.9
						c0,0.2,0.2,0.3,0.3,0.3h0.6l-0.6,5.9c0,1,0.8,1.9,1.9,1.9c1,0,1.9-0.8,1.9-1.9l-0.6-5.9h0.6c0.2,0,0.3-0.2,0.3-0.3v-1.9
						c3.7-0.4,7.1-1.9,9.9-4.1l1.3,1.3c0.1,0.1,0.2,0.1,0.2,0.1s0.2,0,0.2-0.1l0.4-0.4l3.8,4.6c0.7,0.7,1.9,0.7,2.6,0
						c0.7-0.7,0.7-1.9,0-2.6l-4.6-3.8l0.4-0.4c0.1-0.1,0.1-0.4,0-0.5l-1.3-1.3c2.2-2.8,3.7-6.2,4.1-9.9h1.9c0.2,0,0.3-0.2,0.3-0.3
						v-0.6l5.9,0.6c1,0,1.9-0.8,1.9-1.9S77.1,45.3,76.1,45.3z M50.5,32.2c0.2,0,0.3-0.2,0.3-0.3v-1.1c2.9,0.4,5.6,1.5,7.9,3.3
						l-0.8,0.8c-0.1,0.1-0.1,0.4,0,0.5l0.5,0.5l-7.1,6.4c-0.4-0.2-0.7-0.3-1.1-0.5l-0.5-9.6H50.5z M46.4,30.7v1.1
						c0,0.2,0.2,0.3,0.3,0.3h0.7L47,41.8c-0.4,0.1-0.8,0.3-1.1,0.5l-7.1-6.4l0.5-0.5c0.1-0.1,0.1-0.2,0.1-0.2s0-0.2-0.1-0.2L38.5,34
						C40.8,32.2,43.5,31.1,46.4,30.7z M35.4,37.1l0.8,0.8c0.1,0.1,0.2,0.1,0.2,0.1c0.1,0,0.2,0,0.2-0.1l0.5-0.5l6.4,7.1
						c-0.2,0.4-0.3,0.7-0.5,1.1l-9.6,0.5v-0.8c0-0.2-0.2-0.3-0.3-0.3h-1.1C32.5,42,33.7,39.3,35.4,37.1z M36.7,56.5
						c-0.1-0.1-0.4-0.1-0.5,0l-0.8,0.8c-1.7-2.3-2.9-5-3.3-7.9h1.1c0.2,0,0.3-0.2,0.3-0.3v-0.8l9.6,0.5c0.1,0.4,0.3,0.8,0.5,1.1
						L37.2,57L36.7,56.5z M46.8,62.2c-0.2,0-0.3,0.2-0.3,0.3v1.1c-2.9-0.4-5.6-1.5-7.9-3.3l0.8-0.8c0.1-0.1,0.1-0.2,0.1-0.2
						s0-0.2-0.1-0.2l-0.5-0.5l7.1-6.4c0.4,0.2,0.7,0.3,1.1,0.5l0.5,9.6L46.8,62.2L46.8,62.2z M45.9,47.2c0-1.5,1.2-2.7,2.7-2.7
						c1.5,0,2.7,1.2,2.7,2.7c0,1.5-1.2,2.7-2.7,2.7C47.1,49.9,45.9,48.7,45.9,47.2z M50.8,63.7v-1.1c0-0.2-0.2-0.3-0.3-0.3h-0.8
						l0.5-9.6c0.4-0.1,0.8-0.3,1.1-0.5l7.1,6.4l-0.5,0.5c-0.1,0.1-0.1,0.4,0,0.5l0.8,0.8C56.5,62.1,53.8,63.3,50.8,63.7z M61.8,57.3
						L61,56.5c-0.1-0.1-0.4-0.1-0.5,0L60,57l-6.4-7.1c0.2-0.4,0.3-0.7,0.5-1.1l9.6-0.5V49c0,0.2,0.2,0.3,0.3,0.3h1.1
						C64.7,52.3,63.6,55,61.8,57.3z M64,45c-0.2,0-0.3,0.2-0.3,0.3v0.7L54,45.6c-0.1-0.4-0.3-0.8-0.5-1.1l6.4-7.1l0.5,0.5
						c0.1,0.1,0.2,0.1,0.2,0.1s0.2,0,0.2-0.1l0.8-0.8c1.7,2.3,2.9,5,3.3,7.9L64,45L64,45z"/>
					<circle class="st5" cx="48.6" cy="47.2" r="1.7"/>
				</g>
			</g>
		</g>
	</g>
</g>
</svg>
